HIERARCHY
ROOT Hips
{
	OFFSET 0.0000 0.0000 0.0000
	CHANNELS 6 Xposition Yposition Zposition Zrotation Xrotation Yrotation
	JOINT Ab
	{
		OFFSET -0.0000 8.1305 -0.0000
		CHANNELS 3 Zrotation Xrotation Yrotation
		JOINT Chest
		{
			OFFSET -0.0000 26.2902 -0.0000
			CHANNELS 3 Zrotation Xrotation Yrotation
			JOINT Neck
			{
				OFFSET -0.0000 26.2902 0.0000
				CHANNELS 3 Zrotation Xrotation Yrotation
				JOINT Head
				{
					OFFSET -0.0000 10.8167 0.0000
					CHANNELS 3 Zrotation Xrotation Yrotation
					End Site
					{
						OFFSET -0.0000 16.7167 0.0000
					}
				}
			}
			JOINT LeftCollar
			{
				OFFSET -0.0000 26.2902 0.0000
				CHANNELS 3 Zrotation Xrotation Yrotation
				JOINT LeftShoulder
				{
					OFFSET 19.6667 -0.0000 0.0000
					CHANNELS 3 Zrotation Xrotation Yrotation
					JOINT LeftElbow
					{
						OFFSET 27.2190 0.0000 0.0000
						CHANNELS 3 Zrotation Xrotation Yrotation
						JOINT LeftWrist
						{
							OFFSET 30.7431 0.0000 0.0000
							CHANNELS 3 Zrotation Xrotation Yrotation
							End Site
							{
								OFFSET 0.0000 -14.7500 0.0000
							}
						}
					}
				}
			}
			JOINT RightCollar
			{
				OFFSET -0.0000 26.2902 0.0000
				CHANNELS 3 Zrotation Xrotation Yrotation
				JOINT RightShoulder
				{
					OFFSET -19.6667 0.0000 0.0000
					CHANNELS 3 Zrotation Xrotation Yrotation
					JOINT RightElbow
					{
						OFFSET -27.2190 0.0000 0.0000
						CHANNELS 3 Zrotation Xrotation Yrotation
						JOINT RightWrist
						{
							OFFSET -30.7431 0.0000 0.0000
							CHANNELS 3 Zrotation Xrotation Yrotation
							End Site
							{
								OFFSET -0.0000 -14.7500 0.0000
							}
						}
					}
				}
			}
		}
	}
	JOINT LeftHip
	{
		OFFSET 11.8000 0.0000 0.0000
		CHANNELS 3 Zrotation Xrotation Yrotation
		JOINT LeftKnee
		{
			OFFSET -0.0000 -39.7832 0.0000
			CHANNELS 3 Zrotation Xrotation Yrotation
			JOINT LeftAnkle
			{
				OFFSET -0.0000 -41.7317 0.0000
				CHANNELS 3 Zrotation Xrotation Yrotation
				End Site
				{
					OFFSET -0.0000 -4.9167 16.7167
				}
			}
		}
	}
	JOINT RightHip
	{
		OFFSET -11.8000 0.0000 0.0000
		CHANNELS 3 Zrotation Xrotation Yrotation
		JOINT RightKnee
		{
			OFFSET -0.0000 -39.7832 0.0000
			CHANNELS 3 Zrotation Xrotation Yrotation
			JOINT RightAnkle
			{
				OFFSET -0.0000 -41.7317 0.0000
				CHANNELS 3 Zrotation Xrotation Yrotation
				End Site
				{
					OFFSET -0.0000 -4.9167 16.7167
				}
			}
		}
	}
}
MOTION
Frames: 24
Frame Time: 0.010000
-17.2521 96.8064 176.8121 358.7116 358.2311 177.1951 358.0727 348.5598 0.5029 2.6975 9.0546 0.4797 357.9183 354.6697 1.1934 359.2753 2.3017 1.3065 338.7997 357.4263 13.8223 319.6762 58.4959 339.4579 8.1460 357.6411 327.7501 86.2294 356.5097 345.3570 28.3312 355.8994 343.8910 44.5517 45.1724 3.2748 341.6026 354.7893 31.3369 270.7977 355.3538 10.1233 356.9832 3.6461 359.5245 357.5741 8.5946 0.9557 354.9497 349.5773 20.3315 359.1853 7.6111 9.3501 5.9020 4.9691 6.6290 350.7751 343.3836 318.3097 
-17.2723 96.8041 176.8178 358.7135 358.2062 177.1819 358.0655 348.5654 0.5018 2.7148 9.0487 0.4772 357.9209 354.6351 1.2122 359.2802 2.3665 1.3246 338.7974 357.3962 13.8260 319.6751 58.5268 339.4518 8.2364 357.6050 327.7467 86.1617 356.5118 345.3712 28.3223 355.9095 343.8862 44.5609 45.1639 3.2772 341.5966 354.7864 31.3304 270.8254 355.3302 10.1243 356.9776 3.5899 359.5181 357.5594 8.6496 0.9409 355.0238 349.5544 20.3499 359.1657 7.5736 9.3678 5.9160 4.9791 6.6361 350.7909 343.3666 318.3053 
-17.2958 96.8041 176.8121 358.7148 358.1976 177.1712 358.0593 348.5665 0.4999 2.7290 9.0620 0.4749 357.9341 354.6230 1.2286 359.2747 2.4084 1.3416 338.8009 357.4100 13.8121 319.6232 58.5180 339.5005 8.2110 357.6321 327.7419 86.1371 356.4979 345.3337 28.3136 355.9082 343.8821 44.5639 45.1375 3.2778 341.5728 354.7753 31.3934 270.7049 355.4971 9.7931 356.9613 3.5609 359.4949 357.5539 8.6937 0.9690 355.0273 349.5272 20.3513 359.1450 7.5686 9.3808 5.9225 4.9741 6.6198 350.8047 343.3597 318.3236 
-17.3178 96.8019 176.8127 358.7220 358.1766 177.1546 358.0657 348.5599 0.5001 2.7290 9.0796 0.4757 357.9932 354.5950 1.2487 359.2113 2.4731 1.3616 338.8132 357.3850 13.8283 319.6653 58.5763 339.4288 8.2653 357.5879 327.7679 86.0890 356.4991 345.3479 28.3060 355.8891 343.8786 44.5699 45.1530 3.2733 341.5470 354.7794 31.4021 270.7147 355.5318 9.6866 356.9522 3.5123 359.4935 357.5497 8.7496 0.9562 355.0244 349.5032 20.3865 359.1335 7.5409 9.3879 5.9283 4.9815 6.6015 350.7718 343.3796 318.3445 
-17.3412 96.7989 176.8136 358.7297 358.1598 177.1419 358.0710 348.5644 0.5025 2.7322 9.0887 0.4766 358.0325 354.5724 1.2705 359.1740 2.5304 1.3835 338.8222 357.3871 13.8437 319.7067 58.6104 339.3642 8.2500 357.6160 327.7825 86.0774 356.4914 345.3724 28.2969 355.9037 343.8762 44.5905 45.1440 3.2574 341.5693 354.7758 31.4082 270.6957 355.5198 9.6979 356.9496 3.4732 359.4575 357.5277 8.7905 0.9829 355.0499 349.4861 20.4066 359.1201 7.5213 9.3784 5.9348 4.9821 6.6137 350.7854 343.3605 318.3544 
-17.3689 96.7980 176.8102 358.7251 358.1484 177.1190 358.0713 348.5685 0.5058 2.7345 9.1028 0.4790 358.0403 354.5562 1.2933 359.1751 2.5804 1.4060 338.8184 357.4018 13.8704 319.7863 58.6329 339.2570 8.2349 357.6137 327.8277 85.8199 356.4678 345.2137 28.2893 355.9147 343.8758 44.5908 45.1527 3.2612 341.5598 354.7812 31.3957 270.7154 355.4940 9.6976 356.9254 3.4446 359.4151 357.5137 8.8256 1.0289 355.0861 349.4659 20.4276 359.0878 7.5063 9.3633 5.9427 4.9879 6.6401 350.8003 343.3490 318.3580 
-17.3984 96.7963 176.8074 358.7256 358.1329 177.1010 358.0868 348.5683 0.5068 2.7203 9.1253 0.4792 358.0529 354.5242 1.3065 359.1687 2.6478 1.4200 338.8261 357.3982 13.8850 319.8202 58.6551 339.1966 8.2772 357.5980 327.8436 85.6497 356.4615 345.1492 28.2971 355.9158 343.8709 44.5590 45.1568 3.2842 341.5797 354.7832 31.3861 270.7084 355.4742 9.7274 356.9042 3.4105 359.3628 357.5013 8.8631 1.0774 355.1343 349.4511 20.4479 359.0596 7.4851 9.3677 5.9565 4.9967 6.6431 350.8460 343.3226 318.3580 
-17.4292 96.7931 176.8074 358.7274 358.1151 177.0801 358.1043 348.5752 0.5092 2.7046 9.1375 0.4814 358.0653 354.5069 1.3293 359.1718 2.6944 1.4431 338.8377 357.3992 13.9024 319.8282 58.6571 339.1519 8.2810 357.6018 327.8281 85.8403 356.5029 345.2948 28.2977 355.9092 343.8765 44.5519 45.1635 3.2792 341.5934 354.7766 31.3847 270.6758 355.4584 9.7336 356.8856 3.3974 359.1404 357.4599 8.8427 1.3045 355.1890 349.4670 20.4646 359.0337 7.4550 9.3724 5.9672 5.0136 6.6278 350.8707 343.3034 318.3894 
-17.4622 96.7901 176.8057 358.7250 358.0957 177.0541 358.1162 348.5723 0.5145 2.6916 9.1643 0.4860 358.1103 354.4752 1.3597 359.1285 2.7617 1.4731 338.8495 357.3886 13.9183 319.8246 58.6553 339.1222 8.2909 357.5975 327.8140 85.9557 356.5249 345.3766 28.2943 355.9180 343.8869 44.5510 45.1518 3.2739 341.6077 354.7873 31.3879 270.6602 355.4497 9.7411 356.8629 3.3837 358.9192 357.4147 8.8267 1.5014 355.2486 349.4675 20.5120 358.9989 7.4211 9.3794 5.9819 5.0342 6.6254 350.8603 343.2939 318.4165 
-17.4940 96.7874 176.8026 358.7260 358.0788 177.0243 358.1226 348.5707 0.5197 2.6893 9.1930 0.4904 358.1496 354.4697 1.3917 359.0962 2.7943 1.5043 338.8535 357.3804 13.9327 319.8535 58.6656 339.0786 8.2915 357.6078 327.8134 85.9268 356.5013 345.3784 28.2908 355.9327 343.8996 44.5390 45.1326 3.2761 341.6306 354.8079 31.4041 270.5958 355.4101 9.5804 356.8413 3.3496 358.8574 357.4006 8.8651 1.5432 355.2356 349.4102 20.5460 358.9695 7.3904 9.3812 5.9920 5.0543 6.6414 350.8796 343.2663 318.4246 
-17.5285 96.7850 176.7993 358.7193 358.0614 176.9891 358.1499 348.5809 0.5161 2.6526 9.1992 0.4865 358.1539 354.4927 1.4313 359.1194 2.7972 1.5439 338.8655 357.3717 13.9655 319.8863 58.6947 339.0250 8.3175 357.6170 327.8198 85.9045 356.4736 345.4096 28.2940 355.9165 343.9337 44.5698 45.1451 3.2240 341.5914 354.7871 31.4032 270.5831 355.3925 9.4714 356.8082 3.3059 358.7874 357.3852 8.9223 1.6086 355.2368 349.3547 20.5770 358.9279 7.3463 9.3540 6.0085 5.1007 6.6776 351.2782 343.0244 318.4652 
-17.5635 96.7822 176.7957 358.7160 358.0344 176.9694 358.1767 348.5849 0.5091 2.6191 9.1992 0.4771 358.1545 354.5166 1.4755 359.1401 2.8110 1.5860 338.8634 357.3880 13.9881 319.9193 58.7004 339.0022 8.2901 357.6063 327.7031 86.8410 356.6949 345.9797 28.3058 355.9383 343.9707 44.5890 45.1166 3.1602 341.6395 354.7894 31.4225 270.5870 355.3992 9.5000 356.7817 3.2401 358.7150 357.3654 9.0020 1.6380 355.2851 349.3001 20.6250 358.8932 7.2877 9.2477 6.0175 5.1698 6.7651 351.0186 343.1228 318.4657 
-17.5989 96.7764 176.7927 358.7173 358.0074 176.9415 358.2118 348.6009 0.5028 2.5805 9.1825 0.4736 358.1491 354.5280 1.5168 359.1643 2.8638 1.6277 338.8765 357.3698 14.0016 319.8827 58.7193 339.0397 8.3730 357.5686 327.6624 86.8996 356.7188 346.1346 28.3218 355.9406 344.0012 44.5756 45.1197 3.1397 341.6277 354.7912 31.3990 270.6221 355.3755 9.5348 356.7606 3.1767 358.6482 357.3420 9.0811 1.6488 355.1363 349.1961 20.6954 358.8619 7.2330 9.2386 6.0328 5.2295 6.7972 350.9539 343.1123 318.4631 
-17.6361 96.7711 176.7892 358.7184 357.9739 176.9135 358.2284 348.5990 0.5057 2.5648 9.1877 0.4783 358.1717 354.5405 1.5609 359.1579 2.9059 1.6719 338.8676 357.3890 14.0002 319.8444 58.6649 339.1113 8.2961 357.5835 327.6065 86.9495 356.7154 346.0937 28.3326 355.9283 344.0435 44.5703 45.1153 3.0837 341.6384 354.7707 31.4272 270.5795 355.4084 9.4694 356.7347 3.0848 358.5953 357.3246 9.2004 1.6792 355.1733 349.1242 20.7367 358.8249 7.1698 9.2514 6.0633 5.2775 6.8150 351.0083 343.0425 318.4440 
-17.6762 96.7649 176.7835 358.7202 357.9569 176.8866 358.2325 348.6110 0.5166 2.5768 9.2171 0.4838 358.1717 354.5061 1.5804 359.1428 2.9784 1.6933 338.8911 357.3703 14.0233 319.8144 58.7255 339.0749 8.4137 357.5332 327.5951 87.0158 356.7174 346.2379 28.3329 355.9531 344.0497 44.5224 45.0525 3.0998 341.7025 354.8086 31.4307 270.6089 355.3761 9.6103 356.7116 3.0124 358.5257 357.2968 9.3134 1.7137 355.3802 349.1030 20.7968 358.7887 7.1228 9.2599 6.0831 5.3375 6.8342 350.9805 343.0136 318.4406 
-17.7191 96.7592 176.7722 358.7228 357.9439 176.8710 358.2644 348.6296 0.5135 2.5340 9.2242 0.4792 358.1668 354.5534 1.5973 359.1873 2.9813 1.7074 338.9365 357.3784 14.0014 319.6493 58.7022 339.2294 8.4386 357.5435 327.5344 86.9593 356.7081 346.2132 28.3457 355.9528 344.0582 44.5114 45.0606 3.0933 341.6774 354.8006 31.4468 270.5884 355.4192 9.4925 356.6831 2.9381 358.4316 357.2747 9.4392 1.7822 355.3654 349.0111 20.8210 358.7557 7.0885 9.2361 6.0965 5.3935 6.8824 350.9927 342.9604 318.4277 
-17.7628 96.7517 176.7661 358.7282 357.9137 176.8654 358.2730 348.6387 0.5177 2.5365 9.2358 0.4826 358.1637 354.5942 1.6181 359.2195 2.9781 1.7277 338.9369 357.3779 13.9970 319.6100 58.6685 339.2738 8.4215 357.5440 327.4814 86.9869 356.7172 346.2238 28.3197 355.9384 344.0535 44.5250 45.0860 3.0904 341.6330 354.7909 31.4296 270.6312 355.4398 9.4605 356.6606 2.8357 358.3391 357.2537 9.5860 1.7633 355.4896 348.9457 20.9235 358.7232 7.0284 9.2521 6.1281 5.4544 6.8801 350.9804 342.9165 318.4058 
-17.8114 96.7455 176.7593 358.7228 357.8861 176.8576 358.2769 348.6518 0.5188 2.5386 9.2527 0.4821 358.1598 354.5855 1.6328 359.2283 3.0233 1.7424 338.9414 357.3845 13.9915 319.5581 58.6278 339.3165 8.4078 357.5431 327.4280 86.9394 356.7214 346.2014 28.3026 355.9571 344.0508 44.5276 45.0647 3.0839 341.6470 354.8010 31.4221 270.6680 355.4862 9.6018 356.6221 2.7308 358.2316 357.2286 9.7369 1.8002 355.6014 348.8827 20.9912 358.6751 6.9663 9.2413 6.1577 5.5300 6.9077 351.0164 342.8376 318.3855 
-17.8635 96.7396 176.7539 358.7177 357.8498 176.8568 358.2768 348.6580 0.5200 2.5462 9.2758 0.4819 358.1886 354.5592 1.6454 359.1920 3.0804 1.7552 338.9487 357.3885 13.9768 319.4930 58.5934 339.3781 8.4072 357.5426 327.3555 86.9815 356.7139 346.2033 28.2813 355.9583 344.0502 44.5130 45.0389 3.0940 341.6507 354.8108 31.3946 270.7134 355.4262 9.6963 356.5794 2.6071 358.1230 357.2153 9.8981 1.8143 355.7243 348.8205 21.0676 358.6275 6.8891 9.2060 6.1861 5.6180 6.9251 351.0779 342.7406 318.3923 
-17.9197 96.7344 176.7439 358.7148 357.8131 176.8602 358.2901 348.6669 0.5207 2.5360 9.2852 0.4828 358.2113 354.5760 1.6563 359.1778 3.1077 1.7653 338.9638 357.3847 13.9935 319.5199 58.6411 339.3372 8.4240 357.5202 327.3406 86.7064 356.6568 346.0398 28.2677 355.9563 344.0503 44.5011 45.0363 3.0761 341.6955 354.8127 31.4124 270.5665 355.4331 9.6524 356.5317 2.4698 358.0327 357.2128 10.0931 1.7784 355.9053 348.7440 21.1660 358.5760 6.8138 9.1408 6.2206 5.7085 6.9619 351.0214 342.7002 318.3921 
-17.9795 96.7293 176.7388 358.7076 357.7636 176.8632 358.2985 348.6798 0.5239 2.5286 9.2779 0.4864 358.2034 354.6003 1.6650 359.2176 3.1280 1.7727 338.9747 357.3869 14.0218 319.5460 58.6935 339.3056 8.4471 357.5218 327.3213 86.3595 356.5669 345.9011 28.2533 355.9656 344.0627 44.5047 45.0244 3.0401 341.7276 354.8202 31.4413 270.4337 355.4522 9.5943 356.4763 2.3106 357.9550 357.2127 10.3061 1.7284 356.0995 348.6640 21.2646 358.5159 6.7098 9.0442 6.2605 5.8263 7.0314 351.0292 342.6177 318.3913 
-18.0405 96.7245 176.7332 358.7014 357.7113 176.8646 358.3086 348.6917 0.5295 2.5188 9.2738 0.4927 358.1770 354.6206 1.6731 359.2958 3.1397 1.7795 338.9828 357.3816 14.0573 319.5854 58.7420 339.2643 8.4788 357.5229 327.2619 86.3469 356.5538 345.9684 28.2415 355.9733 344.0838 44.5198 44.9724 2.9879 341.7467 354.8294 31.4616 270.4378 355.4292 9.6330 356.4240 2.1534 357.8666 357.2072 10.5110 1.7173 356.4018 348.6027 21.3341 358.4691 6.5683 8.6582 6.2597 6.0469 7.3713 351.0452 342.4994 318.3997 
-18.1018 96.7186 176.7202 358.7014 357.6657 176.8709 358.3267 348.6991 0.5377 2.5052 9.2870 0.4976 358.1831 354.6167 1.6740 359.3141 3.1919 1.7799 339.0102 357.3771 14.0883 319.5760 58.7959 339.2542 8.5202 357.4979 327.1946 86.3638 356.5563 346.0099 28.2271 355.9791 344.0974 44.5334 44.9089 2.9520 341.7698 354.8217 31.4887 270.4608 355.4314 9.6870 356.3825 2.0190 357.7823 357.1943 10.6896 1.6925 356.5876 348.5321 21.4137 358.4295 6.4511 8.3814 6.2606 6.2330 7.5991 351.0854 342.3788 318.4165 
-18.1668 96.7130 176.7040 358.7019 357.6245 176.8849 358.3476 348.7090 0.5471 2.4948 9.3049 0.5029 358.1972 354.6226 1.6696 359.3034 3.2340 1.7757 339.0341 357.3788 14.0891 319.4773 58.7981 339.3641 8.5361 357.4748 327.0823 86.3861 356.5764 346.0284 28.1997 355.9849 344.1009 44.5609 44.8773 2.9195 341.7619 354.8256 31.4974 270.5286 355.4331 9.7231 356.3415 1.9044 357.6855 357.1760 10.8406 1.6726 356.6481 348.4404 21.4814 358.3793 6.3390 8.3081 6.3030 6.3980 7.6577 351.0966 342.2651 318.3809 
